<svg width="66" height="66" viewBox="0 0 66 66" fill="none" xmlns="http://www.w3.org/2000/svg">
<g clip-path="url(#clip0_252_545)">
<path d="M35.0367 17.0559L40.1565 16.9993L33.9336 23.2882L36.1493 25.5039L42.4288 19.2245L42.3722 24.4008H45.5402L45.6439 13.7842L35.0273 13.8879L35.0367 17.0559Z" fill="white"/>
<path d="M42.3816 33.9999L42.4288 39.129L36.1493 32.8496L33.9336 35.1219L40.1659 41.3542H35.0462V44.5222L45.6628 44.5788L45.559 33.9622L42.3816 33.9999Z" fill="white"/>
<path d="M18.301 23.8634L18.2444 18.7437L24.5239 25.0231L26.7396 22.7508L20.4602 16.5185H25.6459V13.3505L15.0293 13.2939L15.133 23.9105L18.301 23.8634Z" fill="white"/>
<path d="M25.4284 41.3444H20.3087L26.541 35.1121L24.3253 32.8398L18.0364 39.1287L18.093 34.009L14.925 33.9524L14.8213 44.569L25.4379 44.5124L25.4284 41.3444Z" fill="white"/>
</g>
<defs>
<clipPath id="clip0_252_545">
<rect width="66" height="66" fill="white"/>
</clipPath>
</defs>
</svg>
